<?xml version="1.0" encoding="UTF-8"?>
<svg id="mark01" data-name="mark01" xmlns="http://www.w3.org/2000/svg" viewBox="0 0 11.46 12.61">
  <defs>
    <style>
      .cls-1 {
        fill: #231815;
      }
    </style>
  </defs>
  <g id="mark01-2" data-name="mark01-2">
    <path class="cls-1" d="m8.04,6.64c-.08.42-.13.78-.13,1.07,0,.69.22,1.01.66,1.02.94.02,1.97-1.33,1.97-3.47,0-2.66-1.5-4.5-4.21-4.5C3.39.77.94,3.2.94,6.95c0,2.99,1.89,4.87,4.51,4.87,1.04,0,1.97-.24,2.69-.64l.26.72c-.94.51-1.94.72-3.1.72-2.9,0-5.3-2.1-5.3-5.59C0,3.25,2.54,0,6.47,0c3.02,0,4.99,2.16,4.99,5.11s-1.47,4.43-3.1,4.43c-.69,0-1.33-.48-1.26-1.6h-.06c-.66,1.1-1.49,1.6-2.53,1.6s-1.87-.82-1.87-2.21c0-2.22,1.74-4.35,4.24-4.35.74,0,1.36.14,1.81.35l-.64,3.31Zm-.46-2.67c-.18-.06-.48-.14-.9-.14-1.67,0-2.99,1.65-2.99,3.46,0,.83.42,1.39,1.2,1.39,1.07,0,2.05-1.41,2.27-2.53l.42-2.18Z"/>
  </g>
</svg>